<svg width="46" height="54" viewBox="0 0 46 54" fill="none" xmlns="http://www.w3.org/2000/svg">
<rect width="46" height="54" fill="#1E1E1E"/>
<g id="MacBook Pro 16&#34; - 1" clip-path="url(#clip0_0_1)">
<rect width="1728" height="12708" transform="translate(-78 -74)" fill="white"/>
<g id="Group 15">
<path id="Vector" d="M19.9507 16.4877C19.4175 16.1593 19.0004 15.8924 18.3963 15.5055C19.6398 14.7318 20.7692 14.0278 21.9832 13.2725C23.1618 13.9785 24.3148 14.6681 25.7049 15.5014C24.3384 16.3224 23.1962 17.008 22.0354 17.7048C21.3418 17.2963 20.7043 16.9228 19.9507 16.4877Z" fill="#2B2B2B"/>
<path id="Vector_2" d="M33.9413 6.77931C37.3039 8.79175 40.5504 10.7334 44.0508 12.8269C42.8495 13.5678 41.8746 14.3098 40.7885 14.7685C40.3684 14.9461 39.6404 14.5879 39.1495 14.2975C34.1833 11.3594 29.2121 8.42641 24.301 5.38978C23.0979 4.64576 22.2262 4.58008 20.9817 5.35797C16.1906 8.3515 11.3149 11.2013 6.46875 14.1005C5.94045 14.4165 5.39838 14.709 4.7963 15.0497C3.62755 14.3365 2.47552 13.6335 1.17297 12.8382C8.41765 8.50133 15.4931 4.26606 22.6187 0C26.3749 2.24848 30.0995 4.47849 33.9413 6.77931Z" fill="url(#paint0_linear_0_1)"/>
<path id="Vector_3" d="M17.2157 29.5715C11.8127 26.3399 6.55629 23.1514 1.25461 20.0449C0.316069 19.4949 -0.0882742 18.8956 0.0160082 17.7985C0.098647 16.9283 0.032731 16.0436 0.032731 14.8594C7.35709 19.2424 14.4158 23.4654 21.4933 27.7006C21.4933 36.1815 21.4933 44.6017 21.4933 53.3421C20.237 52.6228 19.0967 51.9701 17.8394 51.2496C17.8394 50.5569 17.8394 49.8663 17.8394 49.1746C17.8394 43.3004 17.8463 37.4252 17.8296 31.5511C17.8276 30.8892 18.0923 30.1174 17.2157 29.5715Z" fill="url(#paint1_linear_0_1)"/>
<path id="Vector_4" d="M29.6273 28.6216C28.8727 29.0782 28.2352 29.4569 27.5121 29.8869C27.5121 36.9762 27.5121 44.0459 27.5121 51.1484C26.2834 51.8873 25.1363 52.577 23.8278 53.3641C23.8278 44.6873 23.8278 36.2804 23.8278 27.66C30.7951 23.4873 37.8568 19.2582 45.1152 14.9121C45.1152 16.4679 45.1152 17.8112 45.1152 19.3403C40.0595 22.3677 34.9014 25.4556 29.6273 28.6216Z" fill="url(#paint2_linear_0_1)"/>
<path id="Vector_5" d="M4.5759 29.1095C3.02445 28.1787 1.595 27.3094 0.122253 26.4135C0.122253 25.0168 0.122253 23.6468 0.122253 22.0059C5.38556 25.1543 10.4698 28.1961 15.5698 31.2471C15.5698 37.3778 15.5698 43.4316 15.5698 49.7737C14.3115 49.0646 13.1654 48.4181 11.9455 47.7295C11.9455 42.978 11.9455 38.2635 11.9455 33.5284C9.48012 32.0465 7.08851 30.6088 4.5759 29.1095Z" fill="url(#paint3_linear_0_1)"/>
<path id="Vector_6" d="M33.3874 34.3094C33.3864 38.8207 33.3864 43.1617 33.3864 47.6289C32.2294 48.3195 31.0823 49.003 29.765 49.7891C29.765 43.4429 29.765 37.3409 29.765 31.1937C34.8266 28.1663 39.8775 25.1451 45.125 22.0059C45.125 23.5934 45.125 24.947 45.125 26.43C41.6847 28.4896 38.1637 30.5862 34.6584 32.7085C34.1124 33.0389 33.3195 33.1949 33.3874 34.3094Z" fill="url(#paint4_linear_0_1)"/>
<path id="Vector_7" d="M0.86794 36.6316C1.86551 37.2371 2.76175 37.7697 3.67274 38.3095C3.67274 39.7514 3.67274 41.105 3.67274 42.747C2.35151 41.9578 1.21326 41.2784 0.0287652 40.5703C0.0287652 39.2947 0.0169584 38.0981 0.033683 36.9015C0.0415534 36.3012 0.37801 36.3433 0.86794 36.6316Z" fill="url(#paint5_linear_0_1)"/>
<path id="Vector_8" d="M45.2549 37.4645C45.2549 38.5677 45.2549 39.5201 45.2549 40.5504C44.0812 41.2483 42.9341 41.9307 41.6109 42.7178C41.6109 41.1056 41.6109 39.7879 41.6109 38.3019C42.6813 37.6595 43.8264 36.973 45.1496 36.1797C45.2008 36.7297 45.2273 37.0212 45.2549 37.4645Z" fill="url(#paint6_linear_0_1)"/>
</g>
</g>
<defs>
<linearGradient id="paint0_linear_0_1" x1="22.6121" y1="5.86962" x2="22.6121" y2="62.7164" gradientUnits="userSpaceOnUse">
<stop stop-color="#2A2A2A"/>
<stop offset="1" stop-color="#D6D6D6"/>
</linearGradient>
<linearGradient id="paint1_linear_0_1" x1="11.5002" y1="25.3941" x2="31.6" y2="81.6525" gradientUnits="userSpaceOnUse">
<stop stop-color="#2A2A2A"/>
<stop offset="1" stop-color="#D6D6D6"/>
</linearGradient>
<linearGradient id="paint2_linear_0_1" x1="23.9417" y1="54.8501" x2="33.0525" y2="29.92" gradientUnits="userSpaceOnUse">
<stop stop-color="#F92891"/>
<stop offset="1" stop-color="#FA9128"/>
</linearGradient>
<linearGradient id="paint3_linear_0_1" x1="7.16537" y1="26.9758" x2="27.5771" y2="78.1103" gradientUnits="userSpaceOnUse">
<stop stop-color="#2A2A2A"/>
<stop offset="1" stop-color="#D6D6D6"/>
</linearGradient>
<linearGradient id="paint4_linear_0_1" x1="28.0256" y1="48.2145" x2="36.7675" y2="31.6665" gradientUnits="userSpaceOnUse">
<stop stop-color="#F92891"/>
<stop offset="1" stop-color="#FA9128"/>
</linearGradient>
<linearGradient id="paint5_linear_0_1" x1="-1.41293" y1="35.7226" x2="5.10123" y2="42.542" gradientUnits="userSpaceOnUse">
<stop stop-color="#2A2A2A"/>
<stop offset="1" stop-color="#D6D6D6"/>
</linearGradient>
<linearGradient id="paint6_linear_0_1" x1="41.6114" y1="39.4487" x2="45.255" y2="39.4487" gradientUnits="userSpaceOnUse">
<stop stop-color="#F92891"/>
<stop offset="1" stop-color="#FA9128"/>
</linearGradient>
<clipPath id="clip0_0_1">
<rect width="1728" height="12708" fill="white" transform="translate(-78 -74)"/>
</clipPath>
</defs>
</svg>
